<?xml version="1.0" encoding="utf-8"?>
<!-- Generator: Adobe Illustrator 19.2.0, SVG Export Plug-In . SVG Version: 6.00 Build 0)  -->
<svg version="1.1" id="Layer_1" xmlns="http://www.w3.org/2000/svg" xmlns:xlink="http://www.w3.org/1999/xlink" x="0px" y="0px"
	 viewBox="0 0 52.2 52.2" style="enable-background:new 0 0 52.2 52.2;" xml:space="preserve">
<style type="text/css">
	.st0{fill:#092039;}
	.st1{fill:#FFFFFF;}
</style>
<g>
	<g>
		<path class="st0" d="M26.1,52.2c14.4,0,26.1-11.7,26.1-26.1S40.6,0,26.1,0S0.1,11.7,0.1,26.1S11.7,52.2,26.1,52.2"/>
	</g>
</g>
<g>
	<path class="st1" d="M29.9,28.3c0,2.1-1.7,3.8-3.8,3.8c-2.1,0-3.8-1.7-3.8-3.8s1.7-3.8,3.8-3.8C28.2,24.6,29.9,26.3,29.9,28.3"/>
	<g>
		<path class="st1" d="M26.2,33c-2.6,0-4.7-2.1-4.7-4.7s2.1-4.7,4.7-4.7c2.6,0,4.7,2.1,4.7,4.7S28.8,33,26.2,33 M34.1,22.5h-2
			c-0.8,0-1.5-0.6-1.5-1.3c0-0.7-0.7-1.3-1.5-1.3h-5.9c-0.8,0-1.5,0.6-1.5,1.3c0,0.7-0.7,1.3-1.5,1.3h-2c-0.8,0-1.5,0.7-1.5,1.5V34
			c0,0.8,0.7,1.5,1.5,1.5h15.8c0.8,0,1.5-0.7,1.5-1.5V23.9C35.5,23.1,34.9,22.5,34.1,22.5"/>
		<rect x="25.8" y="11" class="st1" width="0.8" height="6.9"/>
		<rect x="27.1" y="15.3" transform="matrix(0.2958 -0.9553 0.9553 0.2958 6.4314 40.0416)" class="st1" width="6.5" height="0.8"/>
		<rect x="21.5" y="12.5" transform="matrix(0.9555 -0.2949 0.2949 0.9555 -3.6453 7.1472)" class="st1" width="0.7" height="6.2"/>
		
			<rect x="17.8" y="15.1" transform="matrix(0.8065 -0.5912 0.5912 0.8065 -7.0224 14.1403)" class="st1" width="0.7" height="5.5"/>
		
			<rect x="31.5" y="17.5" transform="matrix(0.5912 -0.8065 0.8065 0.5912 -0.3717 34.8639)" class="st1" width="5.5" height="0.7"/>
	</g>
</g>
</svg>
