<svg id="Layer_1" data-name="Layer 1" xmlns="http://www.w3.org/2000/svg" viewBox="0 0 107.17 8.5"><defs><style>.cls-1{fill:#1d1d1b;}</style></defs><title>U_iti_black</title><path class="cls-1" d="M647.41,423.27a0.88,0.88,0,1,0,.86-0.87,0.87,0.87,0,0,0-.86.87m-3-3.15a0.94,0.94,0,0,1,1.06.89h-2.14a1,1,0,0,1,1.08-.89m0,4a2.5,2.5,0,0,0,2.53-1.57l-1.42-.26a1,1,0,0,1-1.09.6,1,1,0,0,1-1.14-.93H647c0.12-1.91-.88-3-2.57-3a2.59,2.59,0,1,0,0,5.17m-3.38-6.77h-1.53V424h1.53v-6.65Zm-4.87,2.87a1.19,1.19,0,0,1,1.07,1.34,1.17,1.17,0,0,1-1.07,1.33,1.12,1.12,0,0,1-1.06-1.32,1.14,1.14,0,0,1,1.06-1.35M633.67,424h1.53v-0.46a1.66,1.66,0,0,0,1.34.58,2.29,2.29,0,0,0,2.28-2.55c0-1.64-.91-2.59-2.2-2.59a1.78,1.78,0,0,0-1.42.65v-2.28h-1.53V424Zm-2.53-5.42h1.53v-1.23h-1.53v1.23Zm0,5.42h1.53v-4.91h-1.53V424Zm-0.79-3.55A2.18,2.18,0,0,0,628,419c-1.24,0-2.29.51-2.29,1.51a1.64,1.64,0,0,0,1.65,1.55l0.78,0.13c0.57,0.1.78,0.19,0.78,0.41s-0.38.39-.92,0.39a1,1,0,0,1-1.07-.71l-1.42.18a2.27,2.27,0,0,0,2.49,1.67c1.39,0,2.44-.54,2.44-1.66,0-.88-0.61-1.24-1.82-1.46l-0.81-.15c-0.44-.08-0.6-0.19-0.6-0.39s0.24-.33.76-0.33a0.87,0.87,0,0,1,1,.51Zm-5.32,0a2.17,2.17,0,0,0-2.35-1.47c-1.24,0-2.29.51-2.29,1.51a1.64,1.64,0,0,0,1.65,1.55l0.78,0.13c0.57,0.1.78,0.19,0.78,0.41s-0.38.39-.92,0.39a1,1,0,0,1-1.07-.71l-1.42.18a2.27,2.27,0,0,0,2.49,1.67c1.39,0,2.43-.54,2.43-1.66,0-.88-0.61-1.24-1.82-1.46l-0.81-.15c-0.44-.08-0.6-0.19-0.6-0.39s0.24-.33.76-0.33a0.87,0.87,0,0,1,1,.51Zm-10.47,1.1a2.62,2.62,0,1,0,2.61-2.58,2.42,2.42,0,0,0-2.61,2.58m1.56,0a1.09,1.09,0,1,1,1.05,1.33,1.14,1.14,0,0,1-1.05-1.33m-4.68-1.34a1.19,1.19,0,0,1,1.07,1.34,1.17,1.17,0,0,1-1.07,1.33,1.12,1.12,0,0,1-1.06-1.32,1.14,1.14,0,0,1,1.06-1.35m-1,3.33a1.66,1.66,0,0,0,1.34.58,2.29,2.29,0,0,0,2.28-2.55c0-1.64-.91-2.59-2.21-2.59a1.79,1.79,0,0,0-1.42.66v-0.55h-1.53v6.64h1.53v-2.19Zm-10.39.46h1.53v-2.5c0-.89.27-1.27,0.9-1.27a0.66,0.66,0,0,1,.62.28,2.06,2.06,0,0,1,.15,1V424h1.54v-2.5c0-.89.25-1.27,0.9-1.27a0.66,0.66,0,0,1,.62.28,2.06,2.06,0,0,1,.15,1V424H608v-2.91a2.65,2.65,0,0,0-.26-1.4,1.56,1.56,0,0,0-1.46-.69,2,2,0,0,0-1.71.81,1.51,1.51,0,0,0-1.5-.81,1.76,1.76,0,0,0-1.51.67v-0.57h-1.5V424Zm-2.53-5.42h1.53v-1.23h-1.53v1.23Zm0,5.42h1.53v-4.91h-1.53V424Zm-5.2-3.93a0.94,0.94,0,0,1,1.06.89h-2.14a1,1,0,0,1,1.08-.89m0,4a2.5,2.5,0,0,0,2.52-1.57l-1.42-.26a1,1,0,0,1-1.09.6,1,1,0,0,1-1.14-.93h3.68c0.12-1.91-.88-3-2.56-3a2.59,2.59,0,1,0,0,5.17m-6.6-6.77h-1.53V424h1.53v-2.47c0-.92.33-1.29,1-1.29a0.73,0.73,0,0,1,.61.25,1.75,1.75,0,0,1,.2,1.05V424h1.53v-2.89a2.4,2.4,0,0,0-.36-1.53,1.72,1.72,0,0,0-1.41-.58,1.87,1.87,0,0,0-1.55.65v-2.29Zm-4.88,1.74h-0.79v1.19h0.79v2.31c0,1.17.43,1.4,1.65,1.4h1v-1.21h-0.44c-0.51,0-.66-0.09-0.66-0.56v-1.94h1.1v-1.19h-1.1v-1.47h-1.53v1.47Zm-5.44,1a0.94,0.94,0,0,1,1.06.89h-2.14a1,1,0,0,1,1.08-.89m0,4a2.5,2.5,0,0,0,2.52-1.57l-1.42-.26a1,1,0,0,1-1.09.6,1,1,0,0,1-1.14-.93H578c0.12-1.91-.88-3-2.56-3a2.59,2.59,0,1,0,0,5.17m-6.63-5h-1.5V424h1.53v-2.47c0-.92.33-1.29,1-1.29a0.74,0.74,0,0,1,.61.25,1.76,1.76,0,0,1,.2,1.05V424h1.53v-2.89a2.4,2.4,0,0,0-.36-1.53,1.72,1.72,0,0,0-1.41-.58,1.87,1.87,0,0,0-1.58.68v-0.58Zm-4-.51h1.53v-1.23h-1.53v1.23Zm0,5.42h1.53v-4.91h-1.53V424Zm-3.52-1.36a1.08,1.08,0,0,1-1.05-1.21,1.06,1.06,0,1,1,2.1,0,1.09,1.09,0,0,1-1.05,1.22m1,1.08a0.89,0.89,0,0,1-.29.73,1.2,1.2,0,0,1-.76.21,0.91,0.91,0,0,1-1-.57l-1.39,0a2.21,2.21,0,0,0,2.41,1.72,2.75,2.75,0,0,0,1.92-.61,2.39,2.39,0,0,0,.65-1.81v-4.33h-1.53v0.5A1.62,1.62,0,0,0,561,419a2.18,2.18,0,0,0-2.28,2.43,2.14,2.14,0,0,0,2.2,2.45,1.71,1.71,0,0,0,1.39-.65v0.5Zm-5.64-1.68a1,1,0,0,1-1.08.94,0.59,0.59,0,0,1-.72-0.55c0-.31.18-0.49,1-0.57l0.8-.08v0.26Zm-1.77-1.39a0.73,0.73,0,0,1,.88-0.62c0.55,0,.85.18,0.85,0.65v0.12l-0.78.08a4.3,4.3,0,0,0-2.08.56,1.23,1.23,0,0,0-.47,1,1.71,1.71,0,0,0,1.92,1.65,1.87,1.87,0,0,0,1.58-.62l0,0.5h1.33a19,19,0,0,1-.08-2l0-1.07c0-1.42-.73-2-2.22-2-1,0-2.29.32-2.42,1.64ZM544.66,424h1.53v-2.5c0-.89.27-1.27,0.9-1.27a0.66,0.66,0,0,1,.62.28,2.06,2.06,0,0,1,.15,1V424h1.54v-2.5c0-.89.25-1.27,0.9-1.27a0.66,0.66,0,0,1,.62.28,2.06,2.06,0,0,1,.15,1V424h1.53v-2.91a2.65,2.65,0,0,0-.26-1.4,1.55,1.55,0,0,0-1.46-.69,2,2,0,0,0-1.71.81,1.51,1.51,0,0,0-1.5-.81,1.76,1.76,0,0,0-1.51.67v-0.57h-1.5V424Zm-1.06-6.65H542V424h1.59v-6.65Z" transform="translate(-542 -417.39)"/></svg>