<svg id="Layer_1" data-name="Layer 1" xmlns="http://www.w3.org/2000/svg" viewBox="0 0 540.18 73.06"><defs><style>.cls-1{fill:#2e2d2c;}</style></defs><title>U_Wordmark_black</title><path class="cls-1" d="M210.6,0.8H176.73a1.94,1.94,0,0,0-1.93,1.94V10A1.94,1.94,0,0,0,176.73,12h10.06v49.2H176.73a2,2,0,0,0-1.93,2v7.27a1.94,1.94,0,0,0,1.93,1.94H210.6a1.94,1.94,0,0,0,1.94-1.94V63.12a2,2,0,0,0-1.94-2h-10V12h10A1.94,1.94,0,0,0,212.54,10V2.75A1.94,1.94,0,0,0,210.6.8"/><path class="cls-1" d="M538.23,0.83h-9.59a1.93,1.93,0,0,0-2.06,1.07s-11,21.92-11.33,22.55a0.63,0.63,0,0,1-1.2,0c-0.23-.52-12-22.55-12-22.55a1.92,1.92,0,0,0-2-1.07H490.4a1.93,1.93,0,0,0-1.93,1.94V70.41a1.94,1.94,0,0,0,1.93,1.94h9.89a2,2,0,0,0,1.94-1.94V29.24s8.4,14.3,10.19,17.23c0.32,0.56,1.07,2.1,2.27,2.1s1.71-1.44,2.09-2c1.75-3.53,9.6-17.16,9.6-17.16v41a2,2,0,0,0,2,1.94h9.88a2,2,0,0,0,2-1.94V2.77a2,2,0,0,0-2-1.94"/><path class="cls-1" d="M134.3,0.38h-8.69a2,2,0,0,0-2.08,1.94l0,38.76L100.39,1.45A2.14,2.14,0,0,0,98.21.38H90.26a2,2,0,0,0-2.08,1.94V69.95a2,2,0,0,0,2.08,2h9.13a2,2,0,0,0,2.08-2l-0.09-39.27,23.15,39.94a2.1,2.1,0,0,0,2,1.29h7.82a2,2,0,0,0,2.07-2V2.32A2,2,0,0,0,134.3.38"/><path class="cls-1" d="M46.05,0.36H37A2,2,0,0,0,35.09,2.3V50.8c0,5.51-4.46,9.75-11,10s-11.18-4.47-11.18-10V2.3A1.94,1.94,0,0,0,11,.36h-9A1.94,1.94,0,0,0,0,2.3V50.6C0,62.87,6.9,72.74,23.22,72.74S48,62.87,48,50.6V2.3A1.94,1.94,0,0,0,46.05.36"/><path class="cls-1" d="M292.25,0.83h-36.7a2,2,0,0,0-2,2V70.35a2,2,0,0,0,2,2h10a2,2,0,0,0,2-2V44.83H290a2.37,2.37,0,0,0,2.37-2.38V35.32A2.37,2.37,0,0,0,290,32.95H267.49V12.73h24.76a2.38,2.38,0,0,0,2.38-2.38V3.21A2.38,2.38,0,0,0,292.25.83"/><path class="cls-1" d="M435,28.22a4.72,4.72,0,0,1-4.76,4.7H419.45V11.82h10.73A4.79,4.79,0,0,1,435,16.59V28.22Zm5,11.88c4.87-.79,8.56-7.91,8.56-13.64v-9C448.54,7.8,440.72.83,431,.83H408.36a2,2,0,0,0-2,2V70.36a2,2,0,0,0,2,2h9.12a2,2,0,0,0,2-2V44h6.89c2.27,0.26,4.23,3.17,5.7,6.44,1.28,2.91,7.64,19.83,7.64,19.83,0.56,1.69,1.47,2.07,2.61,2.07h9.19a2.06,2.06,0,0,0,2-2.07s-8.49-23-11.21-27.11Z"/><path class="cls-1" d="M374.07,22.1C374,9.88,363.18,0,350.94,0,336,0.08,325.3,9.88,325.22,22.1V51c0.08,12.22,10.88,22.1,23.11,22.1C363.27,73,374,63.18,374.07,51V22.1ZM348.79,61.89c-7.2,0-10.65-5.27-10.65-10.77V22c0-5.53,3.58-10.8,12.36-10.81,7.21,0,10.62,5.26,10.66,10.77V51.08c0,5.51-3.61,10.8-12.37,10.81"/></svg>